<?xml version="1.0" standalone="no"?><!DOCTYPE svg PUBLIC "-//W3C//DTD SVG 1.1//EN" "http://www.w3.org/Graphics/SVG/1.1/DTD/svg11.dtd"><svg t="1610704839247" class="icon" viewBox="0 0 1024 1024" version="1.1" xmlns="http://www.w3.org/2000/svg" p-id="4130" xmlns:xlink="http://www.w3.org/1999/xlink" width="200" height="200"><defs><style type="text/css"></style></defs><path d="M448.020338 64.00064l127.999233 0 0 895.491161L448.020338 959.491801 448.020338 64.00064zM384.019699 1023.490394l256.000512 0L640.02021 0 384.019699 0 384.019699 1023.490394z" p-id="4131"></path><path d="M64.021617 448.000384l127.998209 0 0 511.491417L64.021617 959.491801 64.021617 448.000384zM0.020978 1023.490394l256.000512 0L256.021489 384.001791 0.020978 384.001791 0.020978 1023.490394z" p-id="4132"></path><path d="M831.85226 255.966743l127.72601 0 0 702.979636L831.85226 958.946378 831.85226 255.966743zM767.814782 1023.286756l255.596306 0L1023.411087 192.134949 767.814782 192.134949 767.814782 1023.286756z" p-id="4133"></path></svg>