<svg class="Icon Icon-calendar Icon-cxuQhR kTAgZA" viewBox="0 0 24 24" width="18" height="18" fill="currentcolor" name="calendar" size="18"><path d="M21,2 L21,0 L18,0 L18,2 L6,2 L6,0 L3,0 L3,2 L2.99109042,2 C1.34177063,2 0,3.34314575 0,5 L0,6.99502651 L0,20.009947 C0,22.2157067 1.78640758,24 3.99005301,24 L20.009947,24 C22.2157067,24 24,22.2135924 24,20.009947 L24,6.99502651 L24,5 C24,3.34651712 22.6608432,2 21.0089096,2 L21,2 L21,2 Z M22,8 L22,20.009947 C22,21.1099173 21.1102431,22 20.009947,22 L3.99005301,22 C2.89008272,22 2,21.1102431 2,20.009947 L2,8 L22,8 L22,8 Z M6,12 L10,12 L10,16 L6,16 L6,12 Z"></path></svg>