<?xml version="1.0" standalone="no"?><!DOCTYPE svg PUBLIC "-//W3C//DTD SVG 1.1//EN" "http://www.w3.org/Graphics/SVG/1.1/DTD/svg11.dtd"><svg t="1564117792773" class="icon" viewBox="0 0 1024 1024" version="1.1" xmlns="http://www.w3.org/2000/svg" p-id="3449" xmlns:xlink="http://www.w3.org/1999/xlink" width="200" height="200"><defs><style type="text/css"></style></defs><path d="M841.955556 614.779259c-9.102222 0-16.402963 4.551111-16.402963 10.05037l0 176.924444L565.94963 542.151111c-6.826667-6.826667-17.92-6.826667-24.746667 0-6.826667 6.826667-6.826667 17.92 0 24.746667l259.602963 259.602963L623.881481 826.500741c-5.594074 0-10.05037 7.395556-10.05037 16.402963 0 9.102222 4.551111 16.402963 10.05037 16.402963l224.237037 0c1.706667 0 3.318519-0.663704 4.740741-1.896296 1.232593-1.137778 2.465185-2.275556 3.602963-3.602963 1.232593-1.422222 1.896296-3.034074 1.896296-4.740741L858.358519 624.924444C858.358519 619.33037 851.057778 614.779259 841.955556 614.779259z" p-id="3450"></path><path d="M192.18963 405.428148c9.102222 0 16.402963-4.551111 16.402963-10.05037l0-176.924444 259.602963 259.602963c6.826667 6.826667 17.92 6.826667 24.746667 0 6.826667-6.826667 6.826667-17.92 0-24.746667L233.434074 193.706667l176.924444 0c5.594074 0 10.05037-7.395556 10.05037-16.402963 0-9.102222-4.551111-16.402963-10.05037-16.402963l-224.237037 0c-1.706667 0-3.318519 0.663704-4.740741 1.896296-1.232593 1.137778-2.465185 2.275556-3.602963 3.602963-1.232593 1.422222-1.896296 3.034074-1.896296 4.740741l0 224.237037C175.786667 400.971852 183.182222 405.428148 192.18963 405.428148z" p-id="3451"></path></svg>