<?xml version="1.0" standalone="no"?><!DOCTYPE svg PUBLIC "-//W3C//DTD SVG 1.1//EN" "http://www.w3.org/Graphics/SVG/1.1/DTD/svg11.dtd"><svg t="1551334615752" class="icon" style="" viewBox="0 0 1024 1024" version="1.1" xmlns="http://www.w3.org/2000/svg" p-id="3374" xmlns:xlink="http://www.w3.org/1999/xlink" width="200" height="200"><defs><style type="text/css"></style></defs><path d="M918 896H106c-23.2 0-42-19.1-42-42.7V170.7c0-23.6 18.8-42.7 42-42.7s42 19.1 42 42.7v640h770c23.2 0 42 19.1 42 42.7S941.2 896 918 896z m-98-128h-84c-23.2 0-42-19.1-42-42.7V426.7c0-23.6 18.8-42.7 42-42.7h84c23.2 0 42 19.1 42 42.7v298.7c0 23.5-18.8 42.6-42 42.6z m-238 0h-84c-23.2 0-42-19.1-42-42.7V256c0-23.6 18.8-42.7 42-42.7h84c23.2 0 42 19.1 42 42.7v469.3c0 23.6-18.8 42.7-42 42.7z m-238 0h-84c-23.2 0-42-19.1-42-42.7V640c0-23.6 18.8-42.7 42-42.7h84c23.2 0 42 19.1 42 42.7v85.3c0 23.6-18.8 42.7-42 42.7z" p-id="3375"></path></svg>