<?xml version="1.0" standalone="no"?><!DOCTYPE svg PUBLIC "-//W3C//DTD SVG 1.1//EN" "http://www.w3.org/Graphics/SVG/1.1/DTD/svg11.dtd"><svg t="1572511837254" class="icon" viewBox="0 0 1024 1024" version="1.1" xmlns="http://www.w3.org/2000/svg" p-id="2917" xmlns:xlink="http://www.w3.org/1999/xlink" width="200" height="200"><defs><style type="text/css"></style></defs><path d="M698.522 361.643l-228.543 241.725-105.483-109.875c-13.187-13.187-30.766-13.187-43.951 0-13.182 13.187-13.182 30.766 0 43.951l127.459 131.852c0 0 4.396 4.393 8.79 4.393h4.396c4.393 0 8.79 4.396 13.182 4.396 4.396 0 8.795 0 13.187-4.396 0 0 4.396 0 4.396-4.393 0 0 4.393 0 4.393-4.396v0 0l254.915-263.703c13.182-13.187 13.182-30.766 0-43.951-21.977-8.788-39.556-8.788-52.74 4.398v0zM698.522 361.643z" p-id="2918"></path><path d="M865.536 67.173h-703.21c-48.349 0-87.904 39.555-87.904 87.904v703.21c0 48.346 39.555 87.901 87.904 87.901h703.21c48.346 0 87.901-39.555 87.901-87.901v-703.21c-0.001-48.349-39.556-87.904-87.901-87.904v0zM909.481 858.284c0 26.37-17.58 43.948-43.948 43.948h-703.209c-26.372 0-43.951-17.58-43.951-43.948v-703.21c0-26.372 17.58-43.951 43.951-43.951h703.21c26.37 0 43.948 17.58 43.948 43.951v703.21h-0.001zM909.481 858.284z" p-id="2919"></path></svg>