<?xml version="1.0" standalone="no"?><!DOCTYPE svg PUBLIC "-//W3C//DTD SVG 1.1//EN" "http://www.w3.org/Graphics/SVG/1.1/DTD/svg11.dtd"><svg t="1554352573126" class="icon" style="" viewBox="0 0 1024 1024" version="1.1" xmlns="http://www.w3.org/2000/svg" p-id="2246" xmlns:xlink="http://www.w3.org/1999/xlink" width="400" height="400"><defs><style type="text/css"></style></defs><path d="M775.953067 17.066667 248.046933 17.066667c-36.420267 0-65.979733 29.559467-65.979733 65.979733l0 857.873067c0 36.4544 29.559467 66.013867 65.979733 66.013867l527.940267 0c36.420267 0 65.979733-29.559467 65.979733-66.013867L841.966933 83.0464C841.966933 46.626133 812.407467 17.066667 775.953067 17.066667zM248.046933 66.56l527.940267 0c9.1136 0 16.4864 7.3728 16.4864 16.4864l0 668.16L231.5264 751.2064 231.5264 83.0464C231.5264 73.966933 238.933333 66.56 248.046933 66.56zM775.953067 957.44 248.046933 957.44c-9.1136 0-16.4864-7.3728-16.4864-16.4864l0-140.219733 560.9472 0 0 140.219733C792.4736 950.033067 785.066667 957.44 775.953067 957.44z" p-id="2247"></path><path d="M512 874.939733m-49.493333 0a1.45 1.45 0 1 0 98.986667 0 1.45 1.45 0 1 0-98.986667 0Z" p-id="2248"></path></svg>