<svg class="Icon Icon-location Icon-cxuQhR kTAgZA" viewBox="0 0 24 24" width="18" height="18" fill="currentcolor" name="location" size="18"><path d="M19.4917776,13.9890373 C20.4445763,12.5611169 21,10.8454215 21,9 C21,4.02943725 16.9705627,0 12,0 C7.02943725,0 3,4.02943725 3,9 C3,10.8454215 3.5554237,12.5611168 4.50822232,13.9890371 L4.49999986,14.0000004 L4.58010869,14.0951296 C4.91305602,14.5790657 5.29212089,15.0288088 5.71096065,15.4380163 L12.5,23.5 L19.4999993,13.9999996 L19.4917776,13.9890373 L19.4917776,13.9890373 Z M12,12 C13.6568542,12 15,10.6568542 15,9 C15,7.34314575 13.6568542,6 12,6 C10.3431458,6 9,7.34314575 9,9 C9,10.6568542 10.3431458,12 12,12 Z"></path></svg>