<?xml version="1.0" standalone="no"?><!DOCTYPE svg PUBLIC "-//W3C//DTD SVG 1.1//EN" "http://www.w3.org/Graphics/SVG/1.1/DTD/svg11.dtd"><svg t="1555489941164" class="icon" style="" viewBox="0 0 1024 1024" version="1.1" xmlns="http://www.w3.org/2000/svg" p-id="5697" xmlns:xlink="http://www.w3.org/1999/xlink" width="400" height="400"><defs><style type="text/css"></style></defs><path d="M555.744549 159.158857H285.408549a28.16 28.16 0 0 0-27.648 28.672c0 15.798857 12.434286 28.672 27.648 28.672h270.409142a28.16 28.16 0 0 0 27.648-28.672 28.233143 28.233143 0 0 0-27.794285-28.672z m-160.914286 372.589714l87.259428-150.674285a29.184 29.184 0 0 0-9.508571-39.350857 27.062857 27.062857 0 0 0-37.888 9.874285L322.272549 545.645714a29.622857 29.622857 0 0 0-0.292572 28.891429 27.501714 27.501714 0 0 0 24.064 14.628571h105.033143l-92.379429 191.634286a29.110857 29.110857 0 0 0 12.434286 38.4 27.209143 27.209143 0 0 0 37.010286-12.873143l112.347428-233.033143a29.696 29.696 0 0 0-1.243428-27.940571 27.282286 27.282286 0 0 0-23.405714-13.604572h-100.937143z" fill="#1C1B20" p-id="5698"></path><path d="M1015.959406 176.274286L896.736549 52.662857a27.062857 27.062857 0 0 0-39.131429 0 29.549714 29.549714 0 0 0 0 40.594286l111.030857 115.126857v638.756571h-63.780571V320.073143a28.16 28.16 0 0 0-27.648-28.672h-102.4V149.942857c0-82.212571-64.512-149.211429-143.798857-149.211428H209.998263C130.784549 0.877714 66.272549 67.876571 66.272549 150.089143v815.762286H27.65312a28.16 28.16 0 0 0-27.648 28.672c0 15.872 12.434286 28.672 27.648 28.672h785.92a28.16 28.16 0 0 0 27.648-28.672 28.16 28.16 0 0 0-27.648-28.672h-38.619429V348.598857h74.752v527.213714c0 15.798857 12.434286 28.672 27.648 28.672h119.003429a28.16 28.16 0 0 0 27.648-28.672V196.534857a29.110857 29.110857 0 0 0-8.045714-20.333714zM121.495406 149.942857c0-50.468571 39.643429-91.721143 88.502857-91.721143H631.227977c48.713143 0 88.502857 41.106286 88.502857 91.794286v812.397714H121.495406V149.942857z" p-id="5699"></path></svg>