<?xml version="1.0" standalone="no"?><!DOCTYPE svg PUBLIC "-//W3C//DTD SVG 1.1//EN" "http://www.w3.org/Graphics/SVG/1.1/DTD/svg11.dtd"><svg t="1554109207864" class="icon" style="" viewBox="0 0 1024 1024" version="1.1" xmlns="http://www.w3.org/2000/svg" p-id="4051" xmlns:xlink="http://www.w3.org/1999/xlink" width="400" height="400"><defs><style type="text/css"></style></defs><path d="M148.906667 341.333333h726.186666a85.333333 85.333333 0 0 1 84.821334 94.748445l-44.231111 398.222222A85.333333 85.333333 0 0 1 830.862222 910.222222H193.137778a85.333333 85.333333 0 0 1-84.821334-75.918222l-44.231111-398.222222A85.333333 85.333333 0 0 1 148.906667 341.333333zM113.777778 199.111111a85.333333 85.333333 0 0 1 85.333333-85.333333h175.559111a85.333333 85.333333 0 0 1 60.302222 25.002666l52.053334 51.996445a28.444444 28.444444 0 0 0 20.081778 8.334222H824.888889a85.333333 85.333333 0 0 1 85.333333 85.333333H113.777778V199.111111z" p-id="4052"></path></svg>