<?xml version="1.0" standalone="no"?><!DOCTYPE svg PUBLIC "-//W3C//DTD SVG 1.1//EN" "http://www.w3.org/Graphics/SVG/1.1/DTD/svg11.dtd"><svg t="1585299427052" class="icon" viewBox="0 0 1024 1024" version="1.1" xmlns="http://www.w3.org/2000/svg" p-id="6455" xmlns:xlink="http://www.w3.org/1999/xlink" width="200" height="200"><defs><style type="text/css"></style></defs><path d="M659.911111 102.4H204.8v394.24h52.337778v-341.333333h365.226666V367.502222h212.764445v501.76H257.137778V707.356444H204.8V921.6h682.666667V329.955556z m14.791111 212.764444V191.260444L798.606222 315.164444z" fill="#8D94E0" p-id="6456"></path><path d="M136.533333 477.866667v250.311111h568.888889V477.866667z m177.720889 181.248a49.834667 49.834667 0 0 1-22.755555 19.114666 98.531556 98.531556 0 0 1-37.205334 6.257778 74.069333 74.069333 0 0 1-49.834666-15.018667A65.308444 65.308444 0 0 1 183.296 625.777778l34.133333-3.299556a40.504889 40.504889 0 0 0 12.288 24.917334 37.319111 37.319111 0 0 0 25.031111 7.850666 38.343111 38.343111 0 0 0 24.689778-6.712889 20.935111 20.935111 0 0 0 8.419556-16.497777 15.132444 15.132444 0 0 0-3.527111-10.24A29.013333 29.013333 0 0 0 271.928889 614.4c-4.096-1.365333-13.312-3.868444-27.648-7.395556A94.776889 94.776889 0 0 1 204.8 589.596444a44.487111 44.487111 0 0 1-15.701333-34.133333 43.235556 43.235556 0 0 1 7.395555-24.462222 45.511111 45.511111 0 0 1 21.276445-17.294222 85.674667 85.674667 0 0 1 34.133333-6.030223 72.476444 72.476444 0 0 1 48.469333 14.108445 49.265778 49.265778 0 0 1 17.066667 37.660444l-34.133333 1.592889a29.468444 29.468444 0 0 0-10.24-19.228444 34.133333 34.133333 0 0 0-21.845334-5.802667 39.708444 39.708444 0 0 0-23.552 6.257778 12.401778 12.401778 0 0 0-5.461333 10.581333 12.970667 12.970667 0 0 0 5.12 10.353778 88.291556 88.291556 0 0 0 31.744 11.377778 168.96 168.96 0 0 1 37.205333 12.288 47.672889 47.672889 0 0 1 19.000889 17.408 53.703111 53.703111 0 0 1-1.365333 54.727111zM504.035556 698.595556a80.782222 80.782222 0 0 1-14.791112-6.485334c-1.137778 0-8.760889-5.575111-22.755555-15.132444a92.387556 92.387556 0 0 1-37.205333 7.395555 81.806222 81.806222 0 0 1-61.781334-22.755555 90.112 90.112 0 0 1-22.755555-65.194667 90.112 90.112 0 0 1 22.755555-65.194667 80.213333 80.213333 0 0 1 60.757334-22.755555 79.644444 79.644444 0 0 1 60.416 22.755555 91.022222 91.022222 0 0 1 22.755555 65.194667 113.777778 113.777778 0 0 1-6.144 38.912A79.644444 79.644444 0 0 1 489.244444 659.911111a106.723556 106.723556 0 0 0 27.648 14.449778z m154.624-17.180445H538.282667V512h34.133333v140.629333h85.902222z" fill="#8D94E0" p-id="6457"></path><path d="M427.349333 537.031111a43.918222 43.918222 0 0 0-34.133333 14.677333 65.308444 65.308444 0 0 0-13.084444 44.259556 66.673778 66.673778 0 0 0 13.084444 44.828444 42.666667 42.666667 0 0 0 33.223111 14.904889 41.301333 41.301333 0 0 0 14.108445-2.503111 98.190222 98.190222 0 0 0-21.276445-10.695111l9.671111-19.797333a120.718222 120.718222 0 0 1 32.540445 17.521778 50.744889 50.744889 0 0 0 9.898666-18.887112 86.698667 86.698667 0 0 0 3.413334-25.372444 65.422222 65.422222 0 0 0-13.084445-44.373333 44.032 44.032 0 0 0-34.360889-14.563556z" fill="#8D94E0" p-id="6458"></path></svg>