<?xml version="1.0" standalone="no"?><!DOCTYPE svg PUBLIC "-//W3C//DTD SVG 1.1//EN" "http://www.w3.org/Graphics/SVG/1.1/DTD/svg11.dtd"><svg t="1554694680760" class="icon" style="" viewBox="0 0 1024 1024" version="1.1" xmlns="http://www.w3.org/2000/svg" p-id="4315" xmlns:xlink="http://www.w3.org/1999/xlink" width="400" height="400"><defs><style type="text/css"></style></defs><path d="M985.6 768c0-21.333333 17.066667-38.4 38.4-42.666667-4.266667-29.866667-17.066667-55.466667-34.133333-76.8-17.066667 12.8-42.666667 12.8-55.466667-4.266666-17.066667-17.066667-17.066667-38.4-4.266667-55.466667-21.333333-17.066667-51.2-25.6-76.8-34.133333 0 25.6-17.066667 42.666667-42.666666 42.666666-21.333333 0-38.4-17.066667-42.666667-38.4-29.866667 4.266667-55.466667 17.066667-76.8 34.133334 12.8 17.066667 12.8 42.666667-4.266667 55.466666-17.066667 17.066667-38.4 17.066667-55.466666 4.266667-17.066667 21.333333-25.6 51.2-34.133334 76.8 21.333333 4.266667 38.4 21.333333 38.4 42.666667s-17.066667 38.4-38.4 42.666666c4.266667 29.866667 17.066667 55.466667 34.133334 76.8 17.066667-12.8 42.666667-12.8 55.466666 4.266667 17.066667 17.066667 17.066667 38.4 4.266667 55.466667 21.333333 17.066667 51.2 25.6 76.8 34.133333 4.266667-21.333333 21.333333-38.4 42.666667-38.4s38.4 17.066667 42.666666 38.4c29.866667-4.266667 55.466667-17.066667 76.8-34.133333-12.8-17.066667-12.8-42.666667 4.266667-55.466667 17.066667-17.066667 38.4-17.066667 55.466667-4.266667 17.066667-21.333333 25.6-51.2 34.133333-76.8-21.333333-4.266667-38.4-21.333333-38.4-46.933333zM810.666667 853.333333c-46.933333 0-85.333333-38.4-85.333334-85.333333s38.4-85.333333 85.333334-85.333333 85.333333 38.4 85.333333 85.333333-38.4 85.333333-85.333333 85.333333z" p-id="4316"></path><path d="M516.266667 810.666667H85.333333V128h853.333334l-4.266667 384c0 25.6 17.066667 42.666667 42.666667 42.666667 21.333333 0 42.666667-17.066667 42.666666-42.666667l4.266667-405.333333c0-17.066667-8.533333-34.133333-17.066667-46.933334-12.8-8.533333-29.866667-17.066667-46.933333-17.066666h-896C29.866667 42.666667 0 72.533333 0 106.666667v725.333333c0 34.133333 29.866667 64 64 64h452.266667c25.6 0 42.666667-17.066667 42.666666-42.666667s-17.066667-42.666667-42.666666-42.666666z" p-id="4317"></path><path d="M806.4 209.066667H682.666667c-25.6 0-42.666667 17.066667-42.666667 42.666666s17.066667 42.666667 42.666667 42.666667h123.733333c25.6 0 42.666667-17.066667 42.666667-42.666667s-17.066667-42.666667-42.666667-42.666666zM806.4 384H682.666667c-25.6 0-42.666667 17.066667-42.666667 42.666667s17.066667 42.666667 42.666667 42.666666h123.733333c25.6 0 42.666667-17.066667 42.666667-42.666666s-17.066667-42.666667-42.666667-42.666667zM593.066667 524.8c-21.333333-17.066667-42.666667-29.866667-68.266667-42.666667 34.133333-29.866667 59.733333-76.8 59.733333-128 0-93.866667-76.8-166.4-166.4-166.4S256 264.533333 256 358.4c0 46.933333 21.333333 93.866667 55.466667 123.733333-93.866667 42.666667-162.133333 136.533333-162.133334 247.466667 0 25.6 17.066667 42.666667 42.666667 42.666667s42.666667-17.066667 42.666667-42.666667c0-102.4 81.066667-183.466667 183.466666-183.466667 46.933333 0 89.6 17.066667 123.733334 46.933334 17.066667 17.066667 42.666667 12.8 59.733333-4.266667 12.8-21.333333 12.8-46.933333-8.533333-64z m-170.666667-85.333333C375.466667 439.466667 341.333333 401.066667 341.333333 358.4s38.4-81.066667 81.066667-81.066667 81.066667 38.4 81.066667 81.066667-38.4 81.066667-81.066667 81.066667z" p-id="4318"></path></svg>