<svg class="Icon Icon-string Icon-cxuQhR kTAgZA" viewBox="0 0 24 24" width="18" height="18" fill="currentcolor" name="string" size="18"><path d="M14.022,18 L11.533,18 C11.2543319,18 11.0247509,17.935084 10.84425,17.80525 C10.6637491,17.675416 10.538667,17.5091677 10.469,17.3065 L9.652,14.8935 L4.389,14.8935 L3.572,17.3065 C3.50866635,17.4838342 3.38516758,17.6437493 3.2015,17.78625 C3.01783241,17.9287507 2.79300133,18 2.527,18 L0.019,18 L5.377,4.1585 L8.664,4.1585 L14.022,18 Z M5.13,12.7085 L8.911,12.7085 L7.638,8.918 C7.55566626,8.67733213 7.45908389,8.3939183 7.34825,8.06775 C7.23741611,7.7415817 7.12816721,7.3885019 7.0205,7.0085 C6.91916616,7.39483527 6.8146672,7.75266502 6.707,8.082 C6.5993328,8.41133498 6.49800047,8.69633213 6.403,8.937 L5.13,12.7085 Z M21.945,18 C21.6663319,18 21.4557507,17.9620004 21.31325,17.886 C21.1707493,17.8099996 21.0520005,17.6516679 20.957,17.411 L20.748,16.8695 C20.5009988,17.078501 20.2635011,17.2621659 20.0355,17.4205 C19.8074989,17.5788341 19.5715846,17.7134161 19.32775,17.82425 C19.0839154,17.9350839 18.8242514,18.0174164 18.54875,18.07125 C18.2732486,18.1250836 17.9676683,18.152 17.632,18.152 C17.1823311,18.152 16.7738352,18.0934173 16.4065,17.97625 C16.0391648,17.8590827 15.7272513,17.6865011 15.47075,17.4585 C15.2142487,17.2304989 15.016334,16.947085 14.877,16.60825 C14.737666,16.269415 14.668,15.8783355 14.668,15.435 C14.668,15.0866649 14.7566658,14.7288352 14.934,14.3615 C15.1113342,13.9941648 15.4184978,13.6600848 15.8555,13.35925 C16.2925022,13.0584152 16.8814963,12.8066677 17.6225,12.604 C18.3635037,12.4013323 19.297661,12.2873335 20.425,12.262 L20.425,11.844 C20.425,11.2676638 20.3062512,10.8512513 20.06875,10.59475 C19.8312488,10.3382487 19.4940022,10.21 19.057,10.21 C18.7086649,10.21 18.4236678,10.2479996 18.202,10.324 C17.9803322,10.4000004 17.7824175,10.4854995 17.60825,10.5805 C17.4340825,10.6755005 17.2646675,10.7609996 17.1,10.837 C16.9353325,10.9130004 16.7390011,10.951 16.511,10.951 C16.3083323,10.951 16.1357507,10.9019172 15.99325,10.80375 C15.8507493,10.7055828 15.7383337,10.5836674 15.656,10.438 L15.124,9.5165 C15.7193363,8.99083071 16.3795797,8.59975128 17.10475,8.34325 C17.8299203,8.08674872 18.6073292,7.9585 19.437,7.9585 C20.0323363,7.9585 20.5690809,8.05508237 21.04725,8.24825 C21.5254191,8.44141763 21.9307483,8.71058161 22.26325,9.05575 C22.5957517,9.40091839 22.8506658,9.81099763 23.028,10.286 C23.2053342,10.7610024 23.294,11.2803305 23.294,11.844 L23.294,18 L21.945,18 Z M18.563,16.2045 C18.9430019,16.2045 19.2754986,16.1380007 19.5605,16.005 C19.8455014,15.8719993 20.1336652,15.6566682 20.425,15.359 L20.425,13.991 C19.8359971,14.0163335 19.3515019,14.0669996 18.9715,14.143 C18.5914981,14.2190004 18.2906678,14.3139994 18.069,14.428 C17.8473322,14.5420006 17.6937504,14.6718326 17.60825,14.8175 C17.5227496,14.9631674 17.48,15.1214991 17.48,15.2925 C17.48,15.6281683 17.5718324,15.8640827 17.7555,16.00025 C17.9391676,16.1364173 18.2083316,16.2045 18.563,16.2045 L18.563,16.2045 Z"></path></svg>