<?xml version="1.0" standalone="no"?><!DOCTYPE svg PUBLIC "-//W3C//DTD SVG 1.1//EN" "http://www.w3.org/Graphics/SVG/1.1/DTD/svg11.dtd"><svg class="icon" width="200px" height="200.00px" viewBox="0 0 1024 1024" version="1.1" xmlns="http://www.w3.org/2000/svg"><path d="M512.338944 738.286592c165.547008 0 390.09792-169.18016 405.70368-215.688192-6.089728-50.951168-217.427968-235.211776-405.70368-235.211776-179.0976 0-405.809152 146.766848-405.830656 236.33408C111.219712 567.846912 328.777728 738.286592 512.338944 738.286592M512.338944 783.398912C324.273152 783.398912 61.44 606.398464 61.44 524.1088c0-130.400256 264.404992-281.83552 450.898944-281.83552 204.079104 0 450.905088 198.331392 450.905088 281.83552C963.244032 593.593344 693.465088 783.398912 512.338944 783.398912L512.338944 783.398912 512.338944 783.398912 512.338944 783.398912zM512.338944 783.398912M512.338944 625.5616c62.134272 0 112.729088-50.593792 112.729088-112.729088 0-62.1312-50.594816-112.72192-112.729088-112.72192-62.133248 0-112.723968 50.59072-112.723968 112.72192C399.614976 574.967808 450.205696 625.5616 512.338944 625.5616M512.338944 670.67392c-87.181312 0-157.837312-70.660096-157.837312-157.841408 0-87.17824 70.656-157.835264 157.837312-157.835264 87.186432 0 157.840384 70.656 157.840384 157.835264C670.179328 600.013824 599.525376 670.67392 512.338944 670.67392L512.338944 670.67392 512.338944 670.67392 512.338944 670.67392zM512.338944 670.67392" /></svg>