<?xml version="1.0" standalone="no"?><!DOCTYPE svg PUBLIC "-//W3C//DTD SVG 1.1//EN" "http://www.w3.org/Graphics/SVG/1.1/DTD/svg11.dtd"><svg t="1563960317660" class="icon" viewBox="0 0 1024 1024" version="1.1" xmlns="http://www.w3.org/2000/svg" p-id="4000" xmlns:xlink="http://www.w3.org/1999/xlink" width="200" height="200"><defs><style type="text/css"></style></defs><path d="M827.472 394.408h-61.26v-75.602c0-144.915-116.398-258.325-257.296-258.325-140.903 0-251.173 113.41-251.173 258.325v75.602h-67.387c-24.506 0-36.756 18.902-36.756 37.802v466.244c0 25.202 18.377 44.103 36.756 44.103h637.116c24.505 0 42.883-18.901 42.883-44.103V432.21c-6.123-18.9-18.378-37.802-42.883-37.802z m-490.086-75.602c0-100.811 79.637-176.419 171.53-176.419 98.016 0 171.53 81.91 171.53 176.419v75.602h-343.06v-75.602z m447.203 541.84h-551.35V476.32h557.477v384.328h-6.127z" fill="#1AA5FF" p-id="4001"></path><path d="M208.823 446.789h607.458v441.776H208.823z" fill="#1AA5FF" p-id="4002"></path></svg>