<?xml version="1.0" standalone="no"?><!DOCTYPE svg PUBLIC "-//W3C//DTD SVG 1.1//EN" "http://www.w3.org/Graphics/SVG/1.1/DTD/svg11.dtd"><svg t="1557129024805" class="icon" style="" viewBox="0 0 1024 1024" version="1.1" xmlns="http://www.w3.org/2000/svg" p-id="2987" xmlns:xlink="http://www.w3.org/1999/xlink" width="400" height="400"><defs><style type="text/css"></style></defs><path d="M785.866667 1024 145.866667 1024C88.266667 1024 43.466667 979.2 43.466667 921.6L43.466667 102.4C43.466667 44.8 88.266667 0 145.866667 0L875.466667 0C933.066667 0 977.866667 44.8 977.866667 102.4L977.866667 844.8C977.866667 864 965.066667 876.8 945.866667 876.8 926.666667 876.8 913.866667 864 913.866667 844.8L913.866667 102.4C913.866667 83.2 894.666667 64 875.466667 64L145.866667 64C126.666667 64 107.466667 83.2 107.466667 102.4L107.466667 921.6C107.466667 940.8 126.666667 960 145.866667 960L785.866667 960C805.066667 960 817.866667 972.8 817.866667 992 817.866667 1011.2 805.066667 1024 785.866667 1024L785.866667 1024ZM798.666667 339.2 222.666667 339.2C203.466667 339.2 190.666667 326.4 190.666667 307.2L190.666667 179.2C190.666667 160 203.466667 147.2 222.666667 147.2L798.666667 147.2C817.866667 147.2 830.666667 160 830.666667 179.2L830.666667 307.2C830.666667 326.4 817.866667 339.2 798.666667 339.2L798.666667 339.2ZM254.666667 275.2 766.666667 275.2 766.666667 211.2 254.666667 211.2 254.666667 275.2 254.666667 275.2ZM331.466667 524.8 248.266667 524.8C229.066667 524.8 216.266667 512 216.266667 492.8L216.266667 441.6C216.266667 422.4 229.066667 409.6 248.266667 409.6L337.866667 409.6C357.066667 409.6 369.866667 422.4 369.866667 441.6L369.866667 492.8C363.466667 512 350.666667 524.8 331.466667 524.8L331.466667 524.8ZM555.466667 524.8 465.866667 524.8C446.666667 524.8 433.866667 512 433.866667 492.8L433.866667 441.6C433.866667 422.4 446.666667 409.6 465.866667 409.6L555.466667 409.6C574.666667 409.6 587.466667 422.4 587.466667 441.6L587.466667 492.8C587.466667 512 574.666667 524.8 555.466667 524.8L555.466667 524.8ZM773.066667 524.8 683.466667 524.8C664.266667 524.8 651.466667 512 651.466667 492.8L651.466667 441.6C651.466667 422.4 664.266667 409.6 683.466667 409.6L773.066667 409.6C792.266667 409.6 805.066667 422.4 805.066667 441.6L805.066667 492.8C805.066667 512 792.266667 524.8 773.066667 524.8L773.066667 524.8ZM331.466667 697.6 248.266667 697.6C229.066667 697.6 216.266667 684.8 216.266667 665.6L216.266667 614.4C216.266667 595.2 229.066667 582.4 248.266667 582.4L337.866667 582.4C357.066667 582.4 369.866667 595.2 369.866667 614.4L369.866667 665.6C363.466667 684.8 350.666667 697.6 331.466667 697.6L331.466667 697.6ZM555.466667 697.6 465.866667 697.6C446.666667 697.6 433.866667 684.8 433.866667 665.6L433.866667 614.4C433.866667 595.2 446.666667 582.4 465.866667 582.4L555.466667 582.4C574.666667 582.4 587.466667 595.2 587.466667 614.4L587.466667 665.6C587.466667 684.8 574.666667 697.6 555.466667 697.6L555.466667 697.6ZM773.066667 697.6 683.466667 697.6C664.266667 697.6 651.466667 684.8 651.466667 665.6L651.466667 614.4C651.466667 595.2 664.266667 582.4 683.466667 582.4L773.066667 582.4C792.266667 582.4 805.066667 595.2 805.066667 614.4L805.066667 665.6C805.066667 684.8 792.266667 697.6 773.066667 697.6L773.066667 697.6ZM331.466667 876.8 248.266667 876.8C229.066667 876.8 216.266667 864 216.266667 844.8L216.266667 793.6C216.266667 774.4 229.066667 761.6 248.266667 761.6L337.866667 761.6C357.066667 761.6 369.866667 774.4 369.866667 793.6L369.866667 844.8C363.466667 857.6 350.666667 876.8 331.466667 876.8L331.466667 876.8ZM555.466667 876.8 465.866667 876.8C446.666667 876.8 433.866667 864 433.866667 844.8L433.866667 793.6C433.866667 774.4 446.666667 761.6 465.866667 761.6L555.466667 761.6C574.666667 761.6 587.466667 774.4 587.466667 793.6L587.466667 844.8C587.466667 857.6 574.666667 876.8 555.466667 876.8L555.466667 876.8ZM773.066667 876.8 683.466667 876.8C664.266667 876.8 651.466667 864 651.466667 844.8L651.466667 793.6C651.466667 774.4 664.266667 761.6 683.466667 761.6L773.066667 761.6C792.266667 761.6 805.066667 774.4 805.066667 793.6L805.066667 844.8C805.066667 857.6 792.266667 876.8 773.066667 876.8L773.066667 876.8Z" p-id="2988"></path></svg>