<?xml version="1.0" standalone="no"?><!DOCTYPE svg PUBLIC "-//W3C//DTD SVG 1.1//EN" "http://www.w3.org/Graphics/SVG/1.1/DTD/svg11.dtd"><svg t="1557129129921" class="icon" style="" viewBox="0 0 1024 1024" version="1.1" xmlns="http://www.w3.org/2000/svg" p-id="6277" xmlns:xlink="http://www.w3.org/1999/xlink" width="400" height="400"><defs><style type="text/css"></style></defs><path d="M992.915146 167.425984a30.7198 30.7198 0 0 0-31.026998 30.566201v54.271647A524.079793 524.079793 0 0 0 511.996672 0.003072C263.01269 0.003072 54.783644 171.163559 2.713582 400.026072A30.412602 30.412602 0 0 0 0 412.67239c0 16.89589 13.977509 30.566201 31.078198 30.566201a30.7198 30.7198 0 0 0 31.026998-30.566201C108.389695 210.792102 292.196501 59.753084 511.996672 59.753084c219.800171 0 403.606977 151.039018 449.686677 352.919306 0 16.89589 14.028709 30.566201 31.078198 30.566201a30.873399 30.873399 0 0 0 31.078198-30.566201V197.992185a30.7198 30.7198 0 0 0-30.924599-30.566201z m0 413.334913a30.7198 30.7198 0 0 0-31.026998 30.566201c-46.284499 201.880288-230.091304 352.919306-449.891476 352.919306-219.800171 0-403.606977-151.039018-449.686677-352.919306a30.873399 30.873399 0 0 0-31.078198-30.566201 30.7198 30.7198 0 0 0-31.078198 30.566201v214.680205c0 16.89589 14.028709 30.566201 31.078198 30.566201a30.7198 30.7198 0 0 0 31.078198-30.566201v-54.271647A523.567797 523.567797 0 0 0 511.996672 1023.996416c248.983982 0 457.213028-171.160487 509.28309-400.023A30.412602 30.412602 0 0 0 1023.993344 611.327098a30.873399 30.873399 0 0 0-31.078198-30.566201zM691.195507 666.110742c-0.153599 0-0.153599 0 0 0v-0.358397h-138.904697v-84.479451H691.195507v-0.511997a30.156604 30.156604 0 1 0 0-60.415607h-118.271231l129.893556-238.897647a38.39975 38.39975 0 0 0 7.67995-22.886252 38.911747 38.911747 0 0 0-75.46831-13.311913h-0.307198s-112.33207 219.134576-117.452036 233.982479h-1.843188C508.054298 460.800077 392.701447 245.249478 392.701447 245.249478h-0.153599a38.246151 38.246151 0 0 0-74.444316 12.799917c0 8.038348 2.406384 15.3599 6.502358 21.50386l-0.153599 0.153599 129.17676 240.843234H332.797837a30.156604 30.156604 0 1 0 0 60.415608v0.511996h143.359068v84.479451H332.797837v0.307198a30.156604 30.156604 0 1 0 0 60.415608v0.358397h143.359068v121.496811h0.870394a37.785354 37.785354 0 0 0 37.01736 45.567703 37.785354 37.785354 0 0 0 37.017359-45.567703h1.023993V727.038346h138.955897v-0.358397c16.691092 0 30.207804-13.465512 30.207804-30.207804a30.156604 30.156604 0 0 0-30.054205-30.361403z" p-id="6278"></path></svg>