<?xml version="1.0" standalone="no"?><!DOCTYPE svg PUBLIC "-//W3C//DTD SVG 1.1//EN" "http://www.w3.org/Graphics/SVG/1.1/DTD/svg11.dtd"><svg t="1563334335383" class="icon" viewBox="0 0 1037 1024" version="1.1" xmlns="http://www.w3.org/2000/svg" p-id="750" xmlns:xlink="http://www.w3.org/1999/xlink" width="202.5390625" height="200"><defs><style type="text/css"></style></defs><path d="M1033.11891 495.639602a156.630697 156.630697 0 0 0-73.487689-99.771608L813.192247 311.115767l47.740178-83.143006a153.412258 153.412258 0 0 0 12.33735-127.12834A153.948664 153.948664 0 0 0 783.153483 9.11891a156.630697 156.630697 0 0 0-187.742273 70.805658L549.816658 160.921949l-150.193819-89.579885a154.485071 154.485071 0 0 0-173.795704 11.800943 122.300681 122.300681 0 0 0-48.812991 107.281299 155.557884 155.557884 0 0 0 46.667365 93.871137c-34.330016 53.64065-96.016763 155.557884-136.783657 225.290728a400.159246 400.159246 0 0 1-67.050812 69.196438 60.077528 60.077528 0 0 0-19.310634 50.42221l5.364065 31.111577 613.112625 355.637507a57.931902 57.931902 0 0 0 29.502357 8.046097 64.368779 64.368779 0 0 0 24.138292-4.827658l27.893138-15.019382 5.900472-26.820325a444.144578 444.144578 0 0 1 28.96595-94.94395l131.419592-226.899947a160.921949 160.921949 0 0 0 44.521739 6.973284 119.618649 119.618649 0 0 0 102.453641-53.64065 142.147721 142.147721 0 0 0 19.310633-113.18177zM643.687795 828.748036a268.203248 268.203248 0 0 0-24.674699 62.223153l-101.917234-57.931901 91.72551-158.239917a53.64065 53.64065 0 0 0-18.774227-73.487689 53.64065 53.64065 0 0 0-73.48769 19.84704l-92.261917 157.70351-92.798324-53.64065 92.261917-157.70351a53.64065 53.64065 0 0 0-19.310633-73.48769 53.64065 53.64065 0 0 0-73.48769 19.310634l-92.261917 158.239916-100.308015-58.468308a277.322158 277.322158 0 0 0 41.3033-53.640649c39.157674-67.050812 98.698795-160.921949 133.028811-218.85385l458.627554 263.911995c-33.257203 58.468308-89.579885 156.09429-127.664746 224.217916z m281.61341-281.077004c-8.582504 13.410162-28.429544 5.900471-43.448926-2.682033L321.843897 223.681509a73.48769 73.48769 0 0 1-37.548454-43.985333s0-5.900471 8.582504-13.410162A43.985333 43.985333 0 0 1 321.843897 157.167103a53.64065 53.64065 0 0 1 25.747512 6.973285L536.406496 275.176532a60.077528 60.077528 0 0 0 45.058145 6.436878l24.674699-8.046097 80.997381-140.002096A48.812991 48.812991 0 0 1 745.068622 107.281299a46.130959 46.130959 0 0 1 26.820325 27.356731 44.521739 44.521739 0 0 1-3.218439 37.012049L697.328444 299.314825a59.004715 59.004715 0 0 0 21.45626 80.460974l188.27868 107.281299a49.885804 49.885804 0 0 1 23.065479 31.647983 34.866422 34.866422 0 0 1-5.900471 28.965951z" fill="" p-id="751"></path></svg>