<?xml version="1.0" standalone="no"?><!DOCTYPE svg PUBLIC "-//W3C//DTD SVG 1.1//EN" "http://www.w3.org/Graphics/SVG/1.1/DTD/svg11.dtd"><svg t="1554353074134" class="icon" style="" viewBox="0 0 1024 1024" version="1.1" xmlns="http://www.w3.org/2000/svg" p-id="3606" xmlns:xlink="http://www.w3.org/1999/xlink" width="400" height="400"><defs><style type="text/css"></style></defs><path d="M264.152169 418.903695c0-24.166399 19.079544-43.772946 42.640146-43.772946 23.506367 0 42.586934 19.605523 42.586934 43.772946 0 24.166399-19.079544 43.747363-42.586934 43.747364-23.559579 0-42.640146-19.579941-42.640146-43.747364z m234.360655 43.747364c-23.532973 0-42.612517-19.580964-42.612516-43.747364 0-24.166399 19.079544-43.772946 42.612516-43.772946s42.614563 19.605523 42.614564 43.772946c-0.001023 24.167422-19.081591 43.747363-42.614564 43.747364z m191.72051-87.52031c23.560602 0 42.639123 19.60757 42.639122 43.77397s-19.079544 43.74634-42.639122 43.74634c-23.505343 0-42.586934-19.579941-42.586934-43.74634s19.081591-43.773969 42.586934-43.77397z m127.867226 348.214727h-85.017302c-11.805884 0-21.319561-7.898901-21.319562-20.022009 0-12.069897 9.514701-19.96982 21.319562-19.969821h85.017302c23.454178 0 46.39568-21.51092 46.39568-45.664016V200.091154c0-24.113187-22.941502-47.580668-46.39568-47.580668H175.143972c-23.480784 0-42.612517 23.467481-42.612516 47.580668v437.597453c0 24.153096 22.939455 45.665039 46.420239 45.665039h362.122481c5.640464 0 11.067057 2.319835 15.047717 6.429433l191.799304 195.008392c8.327666 8.537444 8.327666 22.399149 0 30.939663-4.136204 4.26821-9.618055 6.429433-15.047717 6.429433-5.454222 0-10.910491-2.161223-15.073301-6.429433L532.22053 723.345476H178.951695c-46.986127 0-85.225033-37.361933-85.225034-85.654822V200.091154c0-48.279586 38.239929-87.519286 85.225034-87.519286h639.148865c46.960545 0 85.199451 39.239699 85.199451 87.519286v437.597453c0 48.292889-38.237883 85.656869-85.199451 85.656869z" fill="" p-id="3607"></path></svg>