<svg class="Icon Icon-int Icon-cxuQhR kTAgZA" viewBox="0 0 24 24" width="18" height="18" fill="currentcolor" name="int" size="18"><path d="M15.141,15.512 L14.294,20 L13.051,20 C12.8309989,20 12.6403341,19.9120009 12.479,19.736 C12.3176659,19.5599991 12.237,19.343668 12.237,19.087 C12.237,19.0503332 12.2388333,19.0155002 12.2425,18.9825 C12.2461667,18.9494998 12.2516666,18.9146668 12.259,18.878 L12.908,15.512 L10.653,15.512 L10.015,19.01 C9.94899967,19.3620018 9.79866784,19.6149992 9.564,19.769 C9.32933216,19.9230008 9.06900143,20 8.783,20 L7.584,20 L8.42,15.512 L7.155,15.512 C6.92033216,15.512 6.74066729,15.4551672 6.616,15.3415 C6.49133271,15.2278328 6.429,15.0390013 6.429,14.775 C6.429,14.6723328 6.43999989,14.5550007 6.462,14.423 L6.605,13.554 L8.695,13.554 L9.267,10.518 L6.913,10.518 L7.122,9.385 C7.17333359,9.10633194 7.28699912,8.89916734 7.463,8.7635 C7.63900088,8.62783266 7.92499802,8.56 8.321,8.56 L9.542,8.56 L10.224,5.018 C10.282667,4.7246652 10.4183323,4.49733414 10.631,4.336 C10.8436677,4.17466586 11.0929986,4.094 11.379,4.094 L12.611,4.094 L11.775,8.56 L14.019,8.56 L14.866,4.094 L16.076,4.094 C16.3326679,4.094 16.5416659,4.1673326 16.703,4.314 C16.8643341,4.4606674 16.945,4.64766553 16.945,4.875 C16.945,4.9483337 16.9413334,5.00333315 16.934,5.04 L16.252,8.56 L18.485,8.56 L18.276,9.693 C18.2246664,9.97166806 18.1091676,10.1788327 17.9295,10.3145 C17.7498324,10.4501673 17.4656686,10.518 17.077,10.518 L15.977,10.518 L15.416,13.554 L16.978,13.554 C17.2126678,13.554 17.3904994,13.6108328 17.5115,13.7245 C17.6325006,13.8381672 17.693,14.0306653 17.693,14.302 C17.693,14.4046672 17.6820001,14.5219993 17.66,14.654 L17.528,15.512 L15.141,15.512 Z M10.928,13.554 L13.183,13.554 L13.744,10.518 L11.5,10.518 L10.928,13.554 Z"></path></svg>