<?xml version="1.0" standalone="no"?><!DOCTYPE svg PUBLIC "-//W3C//DTD SVG 1.1//EN" "http://www.w3.org/Graphics/SVG/1.1/DTD/svg11.dtd"><svg t="1551335014872" class="icon" style="" viewBox="0 0 1077 1024" version="1.1" xmlns="http://www.w3.org/2000/svg" p-id="6829" xmlns:xlink="http://www.w3.org/1999/xlink" width="262.939453125" height="250"><defs><style type="text/css"></style></defs><path d="M705.088423 858.589679a22.38186 22.38186 0 0 0-20.825902-23.57875h-291.622465a22.38186 22.38186 0 0 0-20.825901 23.57875v94.195313h-208.259015v70.676407h749.852142v-70.676407h-208.259015z m301.736193-858.46999h-936.806499a70.437029 70.437029 0 0 0-70.018117 70.616563v659.546724a70.496873 70.496873 0 0 0 70.018117 70.616562h937.165566a70.437029 70.437029 0 0 0 70.018117-70.616562v-659.666414a70.437029 70.437029 0 0 0-70.018117-70.616562z m0 706.584536a23.518906 23.518906 0 0 1-23.459062 23.518906h-889.888376a23.459061 23.459061 0 0 1-23.399216-23.518906v-612.508912a23.459061 23.459061 0 0 1 23.399216-23.518906h890.008065a23.518906 23.518906 0 0 1 23.459062 23.518906v612.389223z m-239.916779-45.122786h126.690901v-371.036176h-126.631056v371.036176z m-202.753317 0h126.750746v-484.74081h-126.631056v484.74081z m-380.072701 0h126.750745v-142.669394h-126.750745v142.669394z m177.379229 0h126.690901v-256.852785h-126.631056v256.852785z" p-id="6830"></path></svg>