<svg class="Icon Icon-table2 Icon-cxuQhR kTAgZA" viewBox="0 0 32 28" width="18" height="18" fill="currentcolor" name="table2" size="18"><g fill="currentcolor" fill-rule="evenodd"><path d="M10,19 L10,15 L3,15 L3,13 L10,13 L10,9 L12,9 L12,13 L20,13 L20,9 L22,9 L22,13 L29,13 L29,15 L22,15 L22,19 L29,19 L29,21 L22,21 L22,25 L20,25 L20,21 L12,21 L12,25 L10,25 L10,21 L3,21 L3,19 L10,19 L10,19 Z M12,19 L12,15 L20,15 L20,19 L12,19 Z M30.5,0 L32,0 L32,28 L30.5,28 L1.5,28 L0,28 L0,0 L1.5,0 L30.5,0 Z M29,3 L29,25 L3,25 L3,3 L29,3 Z M3,7 L29,7 L29,9 L3,9 L3,7 Z"></path></g></svg>