<?xml version="1.0" standalone="no"?><!DOCTYPE svg PUBLIC "-//W3C//DTD SVG 1.1//EN" "http://www.w3.org/Graphics/SVG/1.1/DTD/svg11.dtd"><svg t="1585722171221" class="icon" viewBox="0 0 1024 1024" version="1.1" xmlns="http://www.w3.org/2000/svg" p-id="2325" xmlns:xlink="http://www.w3.org/1999/xlink" width="200" height="200"><defs><style type="text/css"></style></defs><path d="M772.655 181.527C707.49 153.6 614.4 139.637 512 139.637c-102.4 0-195.49 13.963-260.655 41.89-74.472 32.582-111.709 69.818-111.709 111.71v432.872c0 41.891 37.237 83.782 111.71 111.71C316.508 870.4 409.6 884.363 512 884.363s195.49-13.964 260.655-41.891c69.818-27.928 111.709-69.818 111.709-111.71V293.237c0-41.89-37.237-79.127-111.71-111.709z m-41.891 190.837c-60.51 23.272-144.291 32.581-218.764 32.581-79.127 0-158.255-9.309-218.764-32.581-69.818-18.619-102.4-46.546-102.4-79.128 0-27.927 37.237-55.854 102.4-79.127 60.51-18.618 139.637-27.927 218.764-27.927 74.473 0 158.255 13.963 218.764 32.582 65.163 23.272 102.4 51.2 102.4 79.127 0 27.927-32.582 55.854-102.4 74.473z m4.654 134.981C674.91 525.964 591.128 539.927 512 539.927c-79.127 0-158.255-13.963-223.418-32.582-65.164-23.272-102.4-51.2-102.4-79.127v-51.2c46.545 18.618 79.127 41.891 130.327 51.2 60.51 13.964 125.673 23.273 195.491 23.273s134.982-9.31 195.49-23.273c51.2-9.309 83.783-32.582 130.328-51.2v55.855c0 23.272-37.236 51.2-102.4 74.472z m0 148.946C674.91 674.909 591.128 688.873 512 688.873c-79.127 0-158.255-13.964-223.418-32.582-65.164-18.618-102.4-46.546-102.4-79.127v-69.819c46.545 23.273 79.127 41.891 130.327 55.855 60.51 13.964 125.673 23.273 195.491 23.273s134.982-9.31 195.49-23.273c51.2-13.964 83.783-32.582 130.328-55.855v69.819c0 32.581-37.236 60.509-102.4 79.127zM512 837.818c-79.127 0-158.255-13.963-223.418-32.582-65.164-18.618-102.4-46.545-102.4-74.472v-69.819c46.545 23.273 79.127 41.891 130.327 55.855 55.855 13.964 125.673 23.273 190.836 23.273 69.819 0 134.982-9.31 195.491-23.273 55.855-13.964 88.437-32.582 134.982-55.855v69.819c0 27.927-37.236 55.854-102.4 79.127C674.91 828.509 586.473 837.818 512 837.818z" fill="#21A3DD" p-id="2326"></path></svg>