<?xml version="1.0" standalone="no"?><!DOCTYPE svg PUBLIC "-//W3C//DTD SVG 1.1//EN" "http://www.w3.org/Graphics/SVG/1.1/DTD/svg11.dtd"><svg t="1554282362983" class="icon" style="" viewBox="0 0 1024 1024" version="1.1" xmlns="http://www.w3.org/2000/svg" p-id="13034" xmlns:xlink="http://www.w3.org/1999/xlink" width="400" height="400"><defs><style type="text/css"></style></defs><path d="M938.671543 789.328457c8.528457-17.056914 17.056914-29.856914 25.6-46.928457 4.256914-4.271543 4.256914-8.528457 4.256914-12.8 4.271543-12.8 12.8-25.6 17.071543-38.4 4.271543-4.271543 4.271543-8.528457 4.271543-17.056914 4.271543-12.814629 8.528457-25.614629 12.8-34.143086 0-4.271543 4.256914-12.8 4.256914-17.071543 4.271543-12.8 4.271543-25.6 8.543086-38.4 0-4.256914 4.256914-12.8 4.256914-17.056914C1024 550.4 1024 529.071543 1024 512 1024 230.4 793.6 0 512 0S0 230.4 0 512c0 17.071543 0 38.4 4.271543 55.471543 0 4.256914 0 12.8 4.256914 17.056914 0 12.8 4.271543 25.6 4.271543 38.4 0 4.271543 4.256914 12.8 4.256914 17.071543 4.271543 12.8 8.543086 25.6 12.814629 34.143086 0 4.256914 4.256914 8.528457 4.256914 17.056914 4.271543 12.8 8.543086 25.6 17.071543 38.4 0 4.271543 4.271543 8.528457 4.271543 12.8 8.528457 17.071543 17.056914 29.871543 25.585371 46.928457C170.671543 930.128457 328.528457 1024 507.728457 1024s337.071543-93.871543 430.943086-234.671543c-4.271543 0-4.271543 0 0 0zM507.728457 243.2c102.4 0 187.743086 85.328457 187.743086 187.728457s-85.343086 187.743086-187.743086 187.743086-187.728457-85.343086-187.728457-187.743086 85.328457-187.728457 187.728457-187.728457z m-311.471543 588.8c55.471543-123.728457 174.943086-204.8 311.471543-204.8 136.543086 0 256.014629 81.071543 311.471543 204.8-81.071543 76.8-192 128-311.471543 128-119.456914-4.271543-230.4-51.2-311.471543-128z"  p-id="13035"></path></svg>