<?xml version="1.0" standalone="no"?><!DOCTYPE svg PUBLIC "-//W3C//DTD SVG 1.1//EN" "http://www.w3.org/Graphics/SVG/1.1/DTD/svg11.dtd"><svg t="1554343764583" class="icon" style="" viewBox="0 0 1024 1024" version="1.1" xmlns="http://www.w3.org/2000/svg" p-id="2368" xmlns:xlink="http://www.w3.org/1999/xlink" width="400" height="400"><defs><style type="text/css"></style></defs><path d="M828.244467 546.722437L668.666802 705.884264a23.182944 23.182944 0 0 1-33.267005 0 24.014619 24.014619 0 0 1 0-33.267005l119.241421-118.825584H399.931777a23.390863 23.390863 0 1 1 0-46.781726h355.333198L635.399797 387.144772a23.494822 23.494822 0 0 1 33.267005-33.267006L828.244467 513.559391a23.182944 23.182944 0 0 1 0 33.163046z m-286.927919 214.88406H232.869036V298.67533h308.447512a23.390863 23.390863 0 1 0 0-46.781726H209.478173a23.182944 23.182944 0 0 0-23.390863 23.390863v509.401015a23.182944 23.182944 0 0 0 23.390863 23.390863h331.838375a23.390863 23.390863 0 1 0 0-46.781726z" p-id="2369"></path></svg>