<?xml version="1.0" standalone="no"?><!DOCTYPE svg PUBLIC "-//W3C//DTD SVG 1.1//EN" "http://www.w3.org/Graphics/SVG/1.1/DTD/svg11.dtd"><svg t="1596536209789" class="icon" viewBox="0 0 1024 1024" version="1.1" xmlns="http://www.w3.org/2000/svg" p-id="6202" xmlns:xlink="http://www.w3.org/1999/xlink" width="200" height="200"><defs><style type="text/css"></style></defs><path d="M450.56 207.36a23.04 23.04 0 1 1 0-46.08h506.88a23.04 23.04 0 0 1 0 46.08H450.56z m0 325.12a23.04 23.04 0 0 1 0-46.08h506.88a23.04 23.04 0 0 1 0 46.08H450.56z m0 332.8a23.04 23.04 0 0 1 0-46.08h506.88a23.04 23.04 0 0 1 0 46.08H450.56zM138.51136 223.6928l137.3184-132.736a23.04 23.04 0 1 1 32.0256 33.1264l-153.6 148.48a23.04 23.04 0 0 1-32.3072-0.27136l-71.68-71.68a23.04 23.04 0 1 1 32.58368-32.58368L138.51136 223.6928zM82.85184 495.70816l55.65952 55.66464 137.3184-132.736a23.04 23.04 0 1 1 32.0256 33.1264l-153.6 148.48a23.04 23.04 0 0 1-32.3072-0.27136l-71.68-71.68a23.04 23.04 0 0 1 32.58368-32.58368z m0 332.8l55.65952 55.66464 137.3184-132.736a23.04 23.04 0 0 1 32.0256 33.1264l-153.6 148.48a23.04 23.04 0 0 1-32.3072-0.27136l-71.68-71.68a23.04 23.04 0 0 1 32.58368-32.58368z" fill="#000000" p-id="6203"></path></svg>