<?xml version="1.0" standalone="no"?><!DOCTYPE svg PUBLIC "-//W3C//DTD SVG 1.1//EN" "http://www.w3.org/Graphics/SVG/1.1/DTD/svg11.dtd"><svg t="1554109310124" class="icon" style="" viewBox="0 0 1273 1024" version="1.1" xmlns="http://www.w3.org/2000/svg" p-id="4170" xmlns:xlink="http://www.w3.org/1999/xlink" width="497.265625" height="400"><defs><style type="text/css"></style></defs><path d="M1232.875622 422.845771c-10.189055-10.189055-25.472637-20.378109-40.756219-20.378109v-127.363184c0-50.945274-40.756219-91.701493-91.701493-91.701493h-499.263681-5.094528l-20.378109-81.512438c-5.094527-20.378109-15.283582-40.756219-35.661692-56.039801s-40.756219-20.378109-61.134328-20.378109h-366.80597c-50.945274 0-91.701493 40.756219-91.701493 91.701492v815.124378c0 20.378109 5.094527 40.756219 20.37811 56.039801l5.094527 5.094528c15.283582 20.378109 40.756219 30.567164 66.228856 30.567164h947.58209c40.756219 0 76.41791-30.567164 81.512437-71.323383l50.945274-229.253731 50.945274-239.442786c5.094527-30.567164 0-45.850746-10.189055-61.134329z m-1115.701493-310.766169h371.900498l5.094527 5.094527 20.37811 86.606966c5.094527 20.378109 15.283582 35.661692 35.661691 50.945273 15.283582 15.283582 35.661692 20.378109 56.039801 20.37811h494.169154v122.268656h-881.353233c-30.567164 0-56.039801 20.378109-61.134329 50.945274l-40.756219 198.686567v-534.925373z m983.243781 590.965174l-45.850746 219.064677H152.835821l91.701492-427.940299h901.731344l-45.850747 208.875622z" p-id="4171"></path></svg>