<?xml version="1.0" standalone="no"?><!DOCTYPE svg PUBLIC "-//W3C//DTD SVG 1.1//EN" "http://www.w3.org/Graphics/SVG/1.1/DTD/svg11.dtd"><svg t="1584352033727" class="icon" viewBox="0 0 1024 1024" version="1.1" xmlns="http://www.w3.org/2000/svg" p-id="1361" xmlns:xlink="http://www.w3.org/1999/xlink" width="200" height="200"><defs><style type="text/css"></style></defs><path d="M445.155 279.007v645.749c0 19.241 15.436 34.839 35.136 34.839h68.976c19.405 0 35.136-15.579 35.136-34.839v-656.499l206.75 203.214c6.875 6.859 18.191 6.685 25.279-0.399l48.781-48.782c7.086-7.086 7.278-18.402 0.4-25.262l-277.982-273.247c-0.976-2.13-2.348-4.137-4.111-5.902l-53.198-53.216c-4.188-4.188-9.724-6.164-15.116-5.902-4.957-0.251-10.070 1.559-13.931 5.41l-38.706 38.731-298.166 286.89c-7.517 7.499-7.308 19.838 0.423 27.567l53.198 53.216c7.751 7.732 20.085 7.924 27.567 0.422l199.555-191.993z" p-id="1362"></path></svg>